<svg xmlns="http://www.w3.org/2000/svg" xmlns:xlink="http://www.w3.org/1999/xlink" width="1000" zoomAndPan="magnify" viewBox="0 0 750 374.999991" height="500" preserveAspectRatio="xMidYMid meet" version="1.0"><defs><g/></defs><g fill="#545454" fill-opacity="1"><g transform="translate(60.643176, 263.003791)"><g><path d="M 70.703125 -123.078125 C 79.285156 -123.078125 87.179688 -121.613281 94.390625 -118.6875 C 101.597656 -115.769531 107.835938 -111.578125 113.109375 -106.109375 C 118.390625 -100.648438 122.488281 -94.144531 125.40625 -86.59375 C 128.332031 -79.039062 129.796875 -70.632812 129.796875 -61.375 C 129.796875 -59.320312 129.378906 -57.9375 128.546875 -57.21875 C 127.710938 -56.5 126.460938 -56.140625 124.796875 -56.140625 L 39.046875 -56.140625 C 39.359375 -49.148438 41.085938 -43.207031 44.234375 -38.3125 C 47.378906 -33.414062 51.457031 -29.695312 56.46875 -27.15625 C 61.476562 -24.613281 66.90625 -23.34375 72.75 -23.34375 C 78.375 -23.34375 83.957031 -24.535156 89.5 -26.921875 C 95.039062 -29.316406 100.050781 -32.828125 104.53125 -37.453125 C 106.5 -39.359375 108.507812 -39.515625 110.5625 -37.921875 L 121.71875 -25.625 C 124.070312 -23.800781 124.035156 -21.675781 121.609375 -19.25 C 114.921875 -12.1875 107.269531 -6.773438 98.65625 -3.015625 C 90.039062 0.742188 81.140625 2.625 71.953125 2.625 C 63.535156 2.625 55.601562 1.160156 48.15625 -1.765625 C 40.71875 -4.691406 34.171875 -8.882812 28.515625 -14.34375 C 22.867188 -19.8125 18.429688 -26.414062 15.203125 -34.15625 C 11.972656 -41.894531 10.359375 -50.585938 10.359375 -60.234375 C 10.359375 -69.796875 11.875 -78.425781 14.90625 -86.125 C 17.945312 -93.832031 22.195312 -100.4375 27.65625 -105.9375 C 33.125 -111.445312 39.519531 -115.679688 46.84375 -118.640625 C 54.175781 -121.597656 62.128906 -123.078125 70.703125 -123.078125 Z M 71.28125 -98.828125 C 67.257812 -98.828125 63.195312 -98.066406 59.09375 -96.546875 C 55 -95.035156 51.335938 -92.644531 48.109375 -89.375 C 44.878906 -86.113281 42.546875 -81.90625 41.109375 -76.75 L 99.28125 -76.75 C 98.144531 -81.90625 96.132812 -86.09375 93.25 -89.3125 C 90.363281 -92.539062 87.023438 -94.929688 83.234375 -96.484375 C 79.441406 -98.046875 75.457031 -98.828125 71.28125 -98.828125 Z M 71.28125 -98.828125 "/></g></g></g><g fill="#545454" fill-opacity="1"><g transform="translate(205.238679, 263.003791)"><g><path d="M 141.078125 -170.21875 L 141.296875 -4.671875 C 141.296875 -1.554688 139.742188 0 136.640625 0 L 124 0 C 121.257812 0 119.550781 -1.363281 118.875 -4.09375 L 115.453125 -16.84375 C 110.140625 -10.625 103.628906 -5.820312 95.921875 -2.4375 C 88.222656 0.9375 80.007812 2.625 71.28125 2.625 C 62.625 2.625 54.578125 0.992188 47.140625 -2.265625 C 39.703125 -5.535156 33.226562 -10.054688 27.71875 -15.828125 C 22.21875 -21.597656 17.929688 -28.273438 14.859375 -35.859375 C 11.785156 -43.453125 10.25 -51.578125 10.25 -60.234375 C 10.25 -68.890625 11.785156 -77.007812 14.859375 -84.59375 C 17.929688 -92.1875 22.21875 -98.867188 27.71875 -104.640625 C 33.226562 -110.410156 39.703125 -114.925781 47.140625 -118.1875 C 54.578125 -121.445312 62.625 -123.078125 71.28125 -123.078125 C 78.863281 -123.078125 86.164062 -121.75 93.1875 -119.09375 C 100.21875 -116.4375 106.425781 -112.644531 111.8125 -107.71875 L 111.703125 -170.21875 C 111.703125 -173.332031 113.253906 -174.890625 116.359375 -174.890625 L 136.40625 -174.890625 C 139.519531 -174.890625 141.078125 -173.332031 141.078125 -170.21875 Z M 76.171875 -23.6875 C 81.253906 -23.6875 86 -24.632812 90.40625 -26.53125 C 94.8125 -28.425781 98.703125 -31.039062 102.078125 -34.375 C 105.453125 -37.71875 108.085938 -41.609375 109.984375 -46.046875 C 111.890625 -50.492188 112.84375 -55.222656 112.84375 -60.234375 C 112.84375 -65.316406 111.890625 -70.054688 109.984375 -74.453125 C 108.085938 -78.859375 105.453125 -82.75 102.078125 -86.125 C 98.703125 -89.507812 94.8125 -92.148438 90.40625 -94.046875 C 86 -95.941406 81.253906 -96.890625 76.171875 -96.890625 C 71.160156 -96.890625 66.4375 -95.941406 62 -94.046875 C 57.5625 -92.148438 53.671875 -89.507812 50.328125 -86.125 C 46.984375 -82.75 44.363281 -78.859375 42.46875 -74.453125 C 40.570312 -70.054688 39.625 -65.316406 39.625 -60.234375 C 39.625 -55.222656 40.570312 -50.492188 42.46875 -46.046875 C 44.363281 -41.609375 46.984375 -37.71875 50.328125 -34.375 C 53.671875 -31.039062 57.5625 -28.425781 62 -26.53125 C 66.4375 -24.632812 71.160156 -23.6875 76.171875 -23.6875 Z M 76.171875 -23.6875 "/></g></g></g><g fill="#545454" fill-opacity="1"><g transform="translate(362.936677, 270.720477)"><g><path d="M 61.21875 0.203125 C 51.1875 0.203125 42.035156 -2.097656 33.765625 -6.703125 C 25.492188 -11.316406 18.914062 -17.453125 14.03125 -25.109375 C 9.15625 -32.773438 6.71875 -41.285156 6.71875 -50.640625 L 6.09375 -128.9375 C 6.09375 -138.289062 8.535156 -146.832031 13.421875 -154.5625 C 18.304688 -162.289062 24.914062 -168.457031 33.25 -173.0625 C 41.59375 -177.675781 50.78125 -179.984375 60.8125 -179.984375 C 69.757812 -179.984375 78.265625 -178.050781 86.328125 -174.1875 C 94.398438 -170.320312 101.007812 -164.863281 106.15625 -157.8125 L 89.078125 -147.25 C 85.691406 -151.445312 81.519531 -154.664062 76.5625 -156.90625 C 71.613281 -159.144531 66.363281 -160.265625 60.8125 -160.265625 C 54.300781 -160.265625 48.398438 -158.835938 43.109375 -155.984375 C 37.828125 -153.140625 33.625 -149.34375 30.5 -144.59375 C 27.382812 -139.851562 25.828125 -134.632812 25.828125 -128.9375 L 26.03125 -104.328125 L 63.65625 -104.125 C 70.84375 -104.125 77.617188 -102.734375 83.984375 -99.953125 C 90.359375 -97.179688 95.953125 -93.351562 100.765625 -88.46875 C 105.578125 -83.582031 109.335938 -77.921875 112.046875 -71.484375 C 114.765625 -65.046875 116.125 -58.164062 116.125 -50.84375 C 116.125 -43.789062 114.695312 -37.179688 111.84375 -31.015625 C 109 -24.847656 105.066406 -19.425781 100.046875 -14.75 C 95.035156 -10.070312 89.207031 -6.410156 82.5625 -3.765625 C 75.925781 -1.117188 68.8125 0.203125 61.21875 0.203125 Z M 61.21875 -19.53125 C 67.726562 -19.53125 73.625 -20.953125 78.90625 -23.796875 C 84.195312 -26.640625 88.398438 -30.429688 91.515625 -35.171875 C 94.640625 -39.921875 96.203125 -45.144531 96.203125 -50.84375 C 96.203125 -56.945312 94.742188 -62.539062 91.828125 -67.625 C 88.910156 -72.707031 85.007812 -76.773438 80.125 -79.828125 C 75.25 -82.878906 69.757812 -84.40625 63.65625 -84.40625 L 26.234375 -84.609375 L 26.4375 -51.046875 C 26.4375 -45.347656 27.992188 -40.09375 31.109375 -35.28125 C 34.234375 -30.46875 38.4375 -26.640625 43.71875 -23.796875 C 49.007812 -20.953125 54.84375 -19.53125 61.21875 -19.53125 Z M 61.21875 -19.53125 "/></g></g></g><g fill="#545454" fill-opacity="1"><g transform="translate(489.420597, 270.720477)"><g><path d="M 95.171875 -0.203125 C 82.972656 -0.203125 71.484375 -2.503906 60.703125 -7.109375 C 49.929688 -11.722656 40.441406 -18.128906 32.234375 -26.328125 C 24.035156 -34.535156 17.628906 -44.03125 13.015625 -54.8125 C 8.398438 -65.59375 6.09375 -77.148438 6.09375 -89.484375 C 6.09375 -101.816406 8.398438 -113.375 13.015625 -124.15625 C 17.628906 -134.9375 24.035156 -144.394531 32.234375 -152.53125 C 40.441406 -160.664062 49.929688 -167.035156 60.703125 -171.640625 C 71.484375 -176.253906 82.972656 -178.5625 95.171875 -178.5625 C 107.515625 -178.5625 119.070312 -176.253906 129.84375 -171.640625 C 140.625 -167.035156 150.113281 -160.628906 158.3125 -152.421875 C 166.519531 -144.222656 172.929688 -134.734375 177.546875 -123.953125 C 182.160156 -113.171875 184.46875 -101.679688 184.46875 -89.484375 C 184.46875 -77.148438 182.160156 -65.59375 177.546875 -54.8125 C 172.929688 -44.03125 166.519531 -34.535156 158.3125 -26.328125 C 150.113281 -18.128906 140.625 -11.722656 129.84375 -7.109375 C 119.070312 -2.503906 107.515625 -0.203125 95.171875 -0.203125 Z M 95.171875 -19.9375 C 104.804688 -19.9375 113.789062 -21.726562 122.125 -25.3125 C 130.46875 -28.90625 137.820312 -33.890625 144.1875 -40.265625 C 150.5625 -46.640625 155.546875 -54.03125 159.140625 -62.4375 C 162.734375 -70.84375 164.53125 -79.859375 164.53125 -89.484375 C 164.53125 -99.109375 162.734375 -108.085938 159.140625 -116.421875 C 155.546875 -124.765625 150.5625 -132.125 144.1875 -138.5 C 137.820312 -144.875 130.46875 -149.859375 122.125 -153.453125 C 113.789062 -157.046875 104.804688 -158.84375 95.171875 -158.84375 C 85.679688 -158.84375 76.734375 -157.046875 68.328125 -153.453125 C 59.921875 -149.859375 52.53125 -144.875 46.15625 -138.5 C 39.789062 -132.125 34.8125 -124.765625 31.21875 -116.421875 C 27.625 -108.085938 25.828125 -99.109375 25.828125 -89.484375 C 25.828125 -79.859375 27.625 -70.84375 31.21875 -62.4375 C 34.8125 -54.03125 39.789062 -46.640625 46.15625 -40.265625 C 52.53125 -33.890625 59.921875 -28.90625 68.328125 -25.3125 C 76.734375 -21.726562 85.679688 -19.9375 95.171875 -19.9375 Z M 95.171875 -19.9375 "/></g></g></g></svg>